<?xml version="1.0" encoding="utf-8"?>
<!-- Generator: Adobe Illustrator 27.0.0, SVG Export Plug-In . SVG Version: 6.00 Build 0)  -->
<svg version="1.1" id="Layer_1" xmlns="http://www.w3.org/2000/svg" xmlns:xlink="http://www.w3.org/1999/xlink" x="0px" y="0px"
	 viewBox="0 0 112.07 106.78" style="enable-background:new 0 0 112.07 106.78;" xml:space="preserve">
<style type="text/css">
	.st0{fill:#FFFFFF;}
</style>
<path d="M12.33,27.81h43.99v6.08H12.33V27.81z M12.33,73.41h43.99v6.08H12.33V73.41z M12.33,58.21h22v6.08h-22V58.21z M12.33,43.01
	h43.99v6.08H12.33V43.01z"/>
<path d="M64.35,94.23H3.79C1.69,94.23,0,92.4,0,90.15V16.64c0-2.26,1.69-4.08,3.79-4.08h60.56c2.09,0,3.79,1.83,3.79,4.08v73.51
	C68.13,92.4,66.44,94.23,64.35,94.23z M62.15,88.01V19.28H6.41v68.73H62.15z"/>
<g>
	<path d="M73.78,104.78c-0.55,0-1.1-0.07-1.64-0.2c-3.68-0.9-5.95-4.63-5.05-8.31l5.13-21c0.2-0.83,0.03-1.7-0.48-2.39l-5.16-7.02
		l-4.09,9.32c-1.4,3.2-4.57,5.26-8.06,5.26c-1.22,0-2.41-0.25-3.54-0.75l-20.57-9.04c-1.68-0.74-2.98-2.09-3.64-3.8
		c-0.67-1.71-0.63-3.58,0.11-5.27c1.1-2.5,3.57-4.11,6.3-4.11c0.96,0,1.89,0.2,2.77,0.58l14.09,6.19c0.27,0.12,0.56,0.18,0.85,0.18
		c0.84,0,1.61-0.5,1.94-1.27l12.03-26.19l-4.33,0.48c-0.12,0.01-0.23,0.11-0.26,0.23l-2.56,10.49c-0.75,3.09-3.5,5.25-6.68,5.25
		c-0.55,0-1.1-0.07-1.64-0.2c-1.79-0.44-3.29-1.54-4.25-3.11s-1.24-3.42-0.8-5.2l2.62-10.72l1.2-4.74c0.7-2.76,3.07-4.82,5.89-5.13
		l23.85-2.62c0.46-0.06,0.95-0.09,1.44-0.09c1.07,0,2.14,0.15,3.17,0.43c0.4,0.11,0.79,0.23,1.17,0.37
		c-0.79-0.73-1.49-1.58-2.06-2.53c-1.63-2.68-2.12-5.84-1.37-8.89C81.46,5.69,86.15,2,91.58,2c0.94,0,1.88,0.11,2.8,0.34
		c6.3,1.54,10.17,7.91,8.63,14.21c-1.29,5.28-5.98,8.97-11.42,8.97c-0.94,0-1.88-0.11-2.8-0.34c-0.25-0.06-0.49-0.13-0.74-0.2
		c2.99,2.52,4.94,6.2,5.22,10.27c0.25,3.59,0.67,5.02,0.89,5.54c2.27,5.32,6.46,9.5,11.78,11.78c3.07,1.31,4.71,4.64,3.91,7.92
		c-0.76,3.1-3.5,5.27-6.68,5.27c-0.91,0-1.8-0.18-2.64-0.54c-6.75-2.88-12.5-7.81-16.39-14l-4.47,9.21l5.28,7.2
		c1.57,2.14,2.11,4.84,1.48,7.41l-5.98,24.49C79.71,102.62,76.96,104.78,73.78,104.78z"/>
	<path class="st0" d="M91.59,4c0.77,0,1.55,0.09,2.32,0.28c5.24,1.28,8.44,6.56,7.16,11.8c-1.09,4.46-5.08,7.45-9.47,7.45
		c-0.77,0-1.55-0.09-2.32-0.28c-5.24-1.28-8.44-6.56-7.16-11.8C83.2,6.99,87.19,4,91.59,4 M79.26,23.59c0.88,0,1.76,0.12,2.64,0.36
		c5.25,1.42,9.02,6.01,9.4,11.44c0.21,2.98,0.56,5.04,1.05,6.19c2.48,5.81,7.11,10.38,12.83,12.83c2.17,0.93,3.31,3.32,2.75,5.61
		c-0.55,2.25-2.57,3.75-4.74,3.75c-0.62,0-1.25-0.12-1.85-0.38c-7.11-3.03-13.02-8.42-16.69-15.31c-0.13-0.24-0.36-0.36-0.59-0.36
		c-0.24,0-0.48,0.13-0.6,0.39l-6.09,12.54l6,8.17c1.21,1.65,1.63,3.76,1.15,5.75l-5.98,24.49c-0.54,2.23-2.54,3.72-4.74,3.72
		c-0.38,0-0.77-0.05-1.16-0.14h0c-2.62-0.64-4.22-3.28-3.58-5.9l5.13-21c0.34-1.4,0.05-2.88-0.81-4.05l-5.84-7.95
		c-0.27-0.37-0.67-0.55-1.07-0.55c-0.5,0-1,0.28-1.23,0.8l-4.56,10.38c-1.12,2.55-3.61,4.07-6.23,4.07c-0.91,0-1.84-0.19-2.73-0.58
		l-20.57-9.04c-2.47-1.08-3.59-3.97-2.5-6.43v0c0.8-1.83,2.59-2.92,4.47-2.92c0.66,0,1.32,0.13,1.96,0.41l14.1,6.19
		c0.54,0.24,1.1,0.35,1.66,0.35c1.59,0,3.1-0.92,3.78-2.46l13.49-29.37l-7.84,0.86c-0.96,0.11-1.75,0.8-1.98,1.74l-2.56,10.49
		c-0.54,2.23-2.54,3.72-4.74,3.72c-0.38,0-0.77-0.05-1.16-0.14l0,0c-2.62-0.64-4.22-3.28-3.58-5.9l2.62-10.72l1.2-4.72
		c0.5-1.96,2.16-3.41,4.17-3.63l23.85-2.62C78.44,23.62,78.85,23.59,79.26,23.59 M91.59,0L91.59,0c-6.36,0-11.85,4.32-13.36,10.5
		c-0.77,3.17-0.38,6.35,0.91,9.1c-0.52,0-1.05,0.04-1.56,0.1l-23.82,2.62c-3.65,0.4-6.71,3.06-7.61,6.62l-1.2,4.72l-2.63,10.75
		c-0.56,2.3-0.19,4.69,1.04,6.72c1.23,2.03,3.18,3.45,5.48,4.02c0.69,0.17,1.4,0.25,2.11,0.25c1.23,0,2.41-0.25,3.49-0.71
		l-3.49,7.59l-0.01,0.03l-0.01,0.03c-0.03,0.07-0.1,0.07-0.11,0.07l-14.14-6.21c-1.13-0.5-2.34-0.75-3.57-0.75
		c-3.52,0-6.71,2.08-8.13,5.31c-0.96,2.17-1.01,4.59-0.15,6.8c0.86,2.21,2.53,3.95,4.7,4.91l20.57,9.04
		c1.38,0.61,2.84,0.91,4.34,0.91c4.29,0,8.17-2.54,9.89-6.46l2.7-6.15l3.11,4.23c0.15,0.21,0.21,0.48,0.15,0.73l-5.13,21
		c-0.56,2.3-0.19,4.69,1.04,6.72c1.23,2.03,3.18,3.45,5.48,4.02c0.69,0.17,1.4,0.25,2.11,0.25c4.1,0,7.65-2.79,8.62-6.77l5.98-24.49
		c0.77-3.15,0.11-6.45-1.81-9.07l-4.57-6.22l2.46-5.05c3.97,5.18,9.25,9.31,15.3,11.9c1.09,0.47,2.24,0.7,3.43,0.7
		c4.1,0,7.64-2.8,8.62-6.8c1.03-4.24-1.1-8.54-5.06-10.24c-4.84-2.07-8.65-5.88-10.72-10.72c-0.08-0.19-0.49-1.29-0.74-4.9
		c-0.19-2.77-1.06-5.38-2.46-7.65c5.83-0.51,10.73-4.66,12.14-10.44c1.8-7.37-2.73-14.83-10.1-16.63C93.78,0.13,92.68,0,91.59,0
		L91.59,0z"/>
</g>
</svg>
