<?xml version="1.0" encoding="UTF-8"?><svg id="Layer_1" xmlns="http://www.w3.org/2000/svg" width="112.07" height="106.78" viewBox="0 0 112.07 106.78"><defs><style>.cls-1{fill:#fff;}</style></defs><path d="M12.33,27.81H56.33v6.08H12.33v-6.08Zm0,45.6H56.33v6.08H12.33v-6.08Zm0-15.2h22v6.08H12.33v-6.08Zm0-15.2H56.33v6.08H12.33v-6.08Z"/><path d="M64.35,94.23H3.79c-2.09,0-3.79-1.83-3.79-4.08V16.64c0-2.26,1.69-4.08,3.79-4.08h60.56c2.09,0,3.79,1.83,3.79,4.08V90.15c0,2.26-1.69,4.08-3.79,4.08Zm-2.2-6.22V19.28H6.41V88.01H62.15Z"/><g><path d="M73.78,104.78c-.55,0-1.1-.07-1.64-.2-3.68-.9-5.95-4.63-5.05-8.31l5.13-21c.2-.83,.03-1.7-.48-2.39l-5.16-7.02-4.09,9.32c-1.4,3.2-4.57,5.26-8.06,5.26-1.22,0-2.41-.25-3.54-.75l-20.57-9.04c-1.68-.74-2.98-2.09-3.64-3.8-.67-1.71-.63-3.58,.11-5.27,1.1-2.5,3.57-4.11,6.3-4.11,.96,0,1.89,.2,2.77,.58l14.09,6.19c.27,.12,.56,.18,.85,.18,.84,0,1.61-.5,1.94-1.27l12.03-26.19-4.33,.48c-.12,.01-.23,.11-.26,.23l-2.56,10.49c-.75,3.09-3.5,5.25-6.68,5.25-.55,0-1.1-.07-1.64-.2-1.79-.44-3.29-1.54-4.25-3.11s-1.24-3.42-.8-5.2l2.62-10.72,1.2-4.74c.7-2.76,3.07-4.82,5.89-5.13l23.85-2.62c.46-.06,.95-.09,1.44-.09,1.07,0,2.14,.15,3.17,.43,.4,.11,.79,.23,1.17,.37-.79-.73-1.49-1.58-2.06-2.53-1.63-2.68-2.12-5.84-1.37-8.89,1.29-5.28,5.98-8.97,11.42-8.97,.94,0,1.88,.11,2.8,.34,6.3,1.54,10.17,7.91,8.63,14.21-1.29,5.28-5.98,8.97-11.42,8.97-.94,0-1.88-.11-2.8-.34-.25-.06-.49-.13-.74-.2,2.99,2.52,4.94,6.2,5.22,10.27,.25,3.59,.67,5.02,.89,5.54,2.27,5.32,6.46,9.5,11.78,11.78,3.07,1.31,4.71,4.64,3.91,7.92-.76,3.1-3.5,5.27-6.68,5.27-.91,0-1.8-.18-2.64-.54-6.75-2.88-12.5-7.81-16.39-14l-4.47,9.21,5.28,7.2c1.57,2.14,2.11,4.84,1.48,7.41l-5.98,24.49c-.75,3.09-3.5,5.25-6.68,5.25Z"/><path class="cls-1" d="M91.59,4c.77,0,1.55,.09,2.32,.28,5.24,1.28,8.44,6.56,7.16,11.8-1.09,4.46-5.08,7.45-9.47,7.45-.77,0-1.55-.09-2.32-.28-5.24-1.28-8.44-6.56-7.16-11.8,1.09-4.46,5.08-7.45,9.47-7.45m-12.33,19.59c.88,0,1.76,.12,2.64,.36,5.25,1.42,9.02,6.01,9.4,11.44,.21,2.98,.56,5.04,1.05,6.19,2.48,5.81,7.11,10.38,12.83,12.83,2.17,.93,3.31,3.32,2.75,5.61-.55,2.25-2.57,3.75-4.74,3.75-.62,0-1.25-.12-1.85-.38-7.11-3.03-13.02-8.42-16.69-15.31-.13-.24-.36-.36-.59-.36-.24,0-.48,.13-.6,.39l-6.09,12.54,6,8.17c1.21,1.65,1.63,3.76,1.15,5.75l-5.98,24.49c-.54,2.23-2.54,3.72-4.74,3.72-.38,0-.77-.05-1.16-.14h0c-2.62-.64-4.22-3.28-3.58-5.9l5.13-21c.34-1.4,.05-2.88-.81-4.05l-5.84-7.95c-.27-.37-.67-.55-1.07-.55-.5,0-1,.28-1.23,.8l-4.56,10.38c-1.12,2.55-3.61,4.07-6.23,4.07-.91,0-1.84-.19-2.73-.58l-20.57-9.04c-2.47-1.08-3.59-3.97-2.5-6.43h0c.8-1.83,2.59-2.92,4.47-2.92,.66,0,1.32,.13,1.96,.41l14.1,6.19c.54,.24,1.1,.35,1.66,.35,1.59,0,3.1-.92,3.78-2.46l13.49-29.37-7.84,.86c-.96,.11-1.75,.8-1.98,1.74l-2.56,10.49c-.54,2.23-2.54,3.72-4.74,3.72-.38,0-.77-.05-1.16-.14h0c-2.62-.64-4.22-3.28-3.58-5.9l2.62-10.72,1.2-4.72c.5-1.96,2.16-3.41,4.17-3.63l23.85-2.62c.4-.05,.81-.08,1.22-.08M91.59,0h0c-6.36,0-11.85,4.32-13.36,10.5-.77,3.17-.38,6.35,.91,9.1-.52,0-1.05,.04-1.56,.1l-23.82,2.62c-3.65,.4-6.71,3.06-7.61,6.62l-1.2,4.72-2.63,10.75c-.56,2.3-.19,4.69,1.04,6.72,1.23,2.03,3.18,3.45,5.48,4.02,.69,.17,1.4,.25,2.11,.25,1.23,0,2.41-.25,3.49-.71l-3.49,7.59v.03s-.03,.03-.03,.03c-.03,.07-.1,.07-.11,.07l-14.14-6.21c-1.13-.5-2.34-.75-3.57-.75-3.52,0-6.71,2.08-8.13,5.31-.96,2.17-1.01,4.59-.15,6.8,.86,2.21,2.53,3.95,4.7,4.91l20.57,9.04c1.38,.61,2.84,.91,4.34,.91,4.29,0,8.17-2.54,9.89-6.46l2.7-6.15,3.11,4.23c.15,.21,.21,.48,.15,.73l-5.13,21c-.56,2.3-.19,4.69,1.04,6.72,1.23,2.03,3.18,3.45,5.48,4.02,.69,.17,1.4,.25,2.11,.25,4.1,0,7.65-2.79,8.62-6.77l5.98-24.49c.77-3.15,.11-6.45-1.81-9.07l-4.57-6.22,2.46-5.05c3.97,5.18,9.25,9.31,15.3,11.9,1.09,.47,2.24,.7,3.43,.7,4.1,0,7.64-2.8,8.62-6.8,1.03-4.24-1.1-8.54-5.06-10.24-4.84-2.07-8.65-5.88-10.72-10.72-.08-.19-.49-1.29-.74-4.9-.19-2.77-1.06-5.38-2.46-7.65,5.83-.51,10.73-4.66,12.14-10.44,1.8-7.37-2.73-14.83-10.1-16.63-1.07-.26-2.17-.4-3.27-.4h0Z"/></g></svg>